<svg width="24" height="24" viewBox="0 0 24 24" fill="none" xmlns="http://www.w3.org/2000/svg">
<path d="M18.3636 22C16.9945 22 15.8021 19.9193 15.1818 16.845C14.5615 19.9193 13.3691 22 12 22C10.6309 22 9.4385 19.9193 8.8182 16.845C8.19785 19.9193 7.00545 22 5.63635 22C3.62806 22 2 17.5229 2 12C2 6.47715 3.62806 2 5.63635 2C7.00545 2 8.19785 4.08072 8.8182 7.155C9.4385 4.08072 10.6309 2 12 2C13.3691 2 14.5615 4.08072 15.1818 7.155C15.8021 4.08072 16.9945 2 18.3636 2C20.372 2 22 6.47715 22 12C22 17.5229 20.372 22 18.3636 22Z" fill="#0FA0BD"/>
</svg>
