<svg width="20" height="20" viewBox="0 0 20 20" fill="none" xmlns="http://www.w3.org/2000/svg">
<path d="M10.0142 1.65833C7.80403 1.65833 5.68441 2.5363 4.12161 4.0991C2.55881 5.6619 1.68083 7.78152 1.68083 9.99166C1.68083 13.67 4.66417 16.6583 8.3475 16.6583C12.0258 16.6583 15.0142 13.67 15.0142 9.99166C15.0136 7.83565 14.1783 5.76358 12.6835 4.20998C11.1886 2.65637 9.15022 1.74189 6.99583 1.65833H10.0142Z" stroke="#94A3B8" stroke-width="1.66667" stroke-linecap="round" stroke-linejoin="round"/>
<path d="M10 8.75C8.93 8.75 8.06 9.36667 8.06 10.1383C8.06 10.9117 8.93 11.5267 10 11.5267C11.07 11.5267 11.94 10.9117 11.94 10.1383C11.94 9.365 11.07 8.75 10 8.75Z" stroke="#94A3B8" stroke-width="1.66667" stroke-linecap="round" stroke-linejoin="round"/>
<path d="M10 6.25C7.46916 6.25 5.41666 8.115 5.41666 10.4167C5.41666 12.7183 7.46916 14.5833 10 14.5833C12.5308 14.5833 14.5833 12.7183 14.5833 10.4167C14.5833 8.115 12.5308 6.25 10 6.25Z" stroke="#94A3B8" stroke-width="1.66667" stroke-linecap="round" stroke-linejoin="round"/>
</svg>
